<svg xmlns="http://www.w3.org/2000/svg" version="1.1" xmlns:xlink="http://www.w3.org/1999/xlink" xmlns:svgjs="http://svgjs.dev/svgjs" width="1000" height="623" viewBox="0 0 1000 623"><g transform="matrix(1,0,0,1,-0.6060606060606233,0.2522267206477409)"><svg viewBox="0 0 396 247" data-background-color="#ffffff" preserveAspectRatio="xMidYMid meet" height="623" width="1000" xmlns="http://www.w3.org/2000/svg" xmlns:xlink="http://www.w3.org/1999/xlink"><g id="tight-bounds" transform="matrix(1,0,0,1,0.2400000000000091,-0.09999999999999432)"><svg viewBox="0 0 395.52 247.2" height="247.2" width="395.52"><g><svg></svg></g><g><svg viewBox="0 0 395.52 247.2" height="247.2" width="395.52"><g transform="matrix(1,0,0,1,91.31636666666667,47.215199999999996)"><svg viewBox="0 0 212.88726666666665 152.7696" height="152.7696" width="212.88726666666665"><g><svg viewBox="0 0 212.88726666666665 152.7696" height="152.7696" width="212.88726666666665"><g><svg viewBox="0 0 212.88726666666665 152.7696" height="152.7696" width="212.88726666666665"><g><svg viewBox="0 0 212.88726666666665 152.7696" height="152.7696" width="212.88726666666665"><g><svg viewBox="0 0 212.88726666666665 152.7696" height="152.7696" width="212.88726666666665"><g transform="matrix(1,0,0,1,0,0)"><svg width="212.88726666666665" viewBox="4.000002861022949 -39.70000076293945 60.19999313354492 40.20000076293945" height="152.7696" data-palette-color="#ee3e38"><svg></svg><g class="undefined-text-0" data-fill-palette-color="primary" id="text-0"><path xmlns="http://www.w3.org/2000/svg" d="M27.6-0.6l-9.45-15.85h-3.85c-0.567 0-1.007-0.227-1.32-0.68-0.32-0.447-0.48-1.053-0.48-1.82v0c0-1.7 0.7-2.55 2.1-2.55v0h5.85c1.233 0 2.1-0.35 2.6-1.05 0.5-0.7 0.75-1.467 0.75-2.3v0-6.45c0-0.833-0.25-1.6-0.75-2.3-0.5-0.7-1.367-1.05-2.6-1.05v0h-10.55v32.6c0 1.6-0.983 2.4-2.95 2.4v0c-1.967 0-2.95-0.8-2.95-2.4v0-34.65c0-1.2 0.31-2 0.93-2.4 0.613-0.4 1.353-0.6 2.22-0.6v0h14.55c0.867 0 1.767 0.183 2.7 0.55 0.933 0.367 1.833 0.833 2.7 1.4v0h-0.05c0.867 0.633 1.533 1.46 2 2.48 0.467 1.013 0.7 2.187 0.7 3.52v0 7.3c0 2.7-0.9 4.717-2.7 6.05v0c-0.367 0.267-0.757 0.517-1.17 0.75-0.42 0.233-0.847 0.467-1.28 0.7v0l8 13.2c0.1 0.167 0.2 0.383 0.3 0.65 0.1 0.267 0.15 0.483 0.15 0.65v0c0 0.8-0.567 1.567-1.7 2.3v0-0.05c-0.767 0.467-1.417 0.7-1.95 0.7v0c-0.767 0-1.383-0.383-1.85-1.15v0zM58.25-8.4v-9.65c0-1.633 1-2.45 3-2.45v0c1.967 0 2.95 0.783 2.95 2.35v0 10.15c0 2.7-0.9 4.717-2.7 6.05v0c-0.867 0.633-1.757 1.123-2.67 1.47-0.92 0.353-1.813 0.53-2.68 0.53v0h-10.4c-0.867 0-1.757-0.177-2.67-0.53-0.92-0.347-1.813-0.837-2.68-1.47v0c-0.867-0.667-1.533-1.49-2-2.47-0.467-0.987-0.7-2.18-0.7-3.58v0-23.75c0-1.367 0.243-2.55 0.73-3.55 0.48-1 1.137-1.817 1.97-2.45v0h-0.05c0.867-0.567 1.767-1.033 2.7-1.4 0.933-0.367 1.833-0.55 2.7-0.55v0h9.9c0.867 0 1.767 0.183 2.7 0.55 0.933 0.367 1.833 0.833 2.7 1.4v0h-0.05c1.767 1.3 2.65 3.3 2.65 6v0 3.45c0 1.6-0.983 2.4-2.95 2.4v0c-1.967 0-2.95-0.8-2.95-2.4v0-3c0-0.833-0.25-1.6-0.75-2.3-0.5-0.7-1.367-1.05-2.6-1.05v0h-7.35c-1.267 0-2.15 0.35-2.65 1.05-0.5 0.7-0.75 1.467-0.75 2.3v0 22.9c0 0.433 0.06 0.85 0.18 1.25 0.113 0.4 0.303 0.757 0.57 1.07 0.267 0.32 0.617 0.58 1.05 0.78 0.433 0.2 0.967 0.3 1.6 0.3v0h7.85c1.233 0 2.1-0.35 2.6-1.05 0.5-0.7 0.75-1.483 0.75-2.35zM55.9-18.6v0c0 0.567-0.107 1.107-0.32 1.62-0.22 0.52-0.52 0.963-0.9 1.33-0.387 0.367-0.83 0.657-1.33 0.87-0.5 0.22-1.05 0.33-1.65 0.33v0c-1.133 0-2.1-0.4-2.9-1.2-0.8-0.8-1.2-1.783-1.2-2.95v0c0-1.133 0.4-2.1 1.2-2.9 0.8-0.8 1.767-1.2 2.9-1.2v0c0.6 0 1.15 0.107 1.65 0.32 0.5 0.22 0.943 0.513 1.33 0.88 0.38 0.367 0.68 0.8 0.9 1.3 0.213 0.5 0.32 1.033 0.32 1.6z" fill="#ee3e38" fill-rule="nonzero" stroke="none" stroke-width="1" stroke-linecap="butt" stroke-linejoin="miter" stroke-miterlimit="10" stroke-dasharray="" stroke-dashoffset="0" font-family="none" font-weight="none" font-size="none" text-anchor="none" style="mix-blend-mode: normal" data-fill-palette-color="primary" opacity="1"></path></g></svg></g></svg></g></svg></g></svg></g></svg></g></svg></g><path d="M272.661 41.215L272.661 0 25.461 0 25.461 247.2 272.661 247.2 272.661 205.985 259.841 205.985 259.841 234.38 38.281 234.38 38.281 12.82 259.841 12.82 259.841 41.215Z" fill="#ee3e38" stroke="transparent" data-fill-palette-color="primary"></path></svg></g><defs></defs></svg><rect width="395.52" height="247.2" fill="none" stroke="none" visibility="hidden"></rect></g></svg></g></svg>